<svg viewBox="0 0 47 59" fill="none" xmlns="http://www.w3.org/2000/svg">
    <path d="M15.9317 0H17.2267C21.5922 0.581754 25.1972 3.48061 28.36 6.45549C29.6455 7.77104 31.0327 9.04694 31.9459 10.6831C32.1687 12.078 31.6691 13.4465 31.0709 14.6662C30.5077 14.7389 29.9509 14.8513 29.4036 15C28.6018 13.5952 27.9304 12.0813 26.8932 10.8451C24.0518 11.169 21.3313 12.1772 18.6681 13.2085C16.1544 14.134 13.1603 13.2481 11.4898 11.093C9.61256 8.82547 9.49482 5.23248 11.2194 2.83605C12.3044 1.22962 14.083 0.257823 15.9317 0Z" fill="#F30F0E"/>
    <path d="M28.9788 15.4247C29.5194 15.2893 30.0693 15.187 30.6256 15.1208C31.8324 15.0034 33.077 14.9041 34.2775 15.1629C34.815 15.2743 35.0538 15.8099 35.3493 16.2011C36.6598 18.2653 37.9703 20.3296 39.1897 22.448C39.9157 23.7058 40.6449 24.9907 41 26.399C38.7026 25.9506 36.3392 26.0619 34.0387 26.423C25.3803 27.7771 16.791 30.0701 9 34C9.82027 30.04 10.4457 26.0349 10.6311 21.9966C16.329 18.8581 22.7278 17.2181 28.9788 15.4247Z" fill="#2C343D"/>
    <path d="M35.5108 31.3873C36.4946 31.273 37.4847 31.1619 38.4748 31.0794C39.9066 31.0191 41.376 30.8794 42.7828 31.2254C43.4314 31.3809 43.5786 32.1364 43.8199 32.6665C45.1796 36.6406 46.3953 40.6909 47 44.8619V47.1156C46.0851 46.6521 45.1452 46.1601 44.1081 46.0903C41.4951 45.8935 38.8664 46.1316 36.2847 46.5156C31.1464 47.2616 26.0206 48.2107 21.0765 49.8359C14.7257 51.842 8.54091 54.3465 2.39998 56.9366C1.69503 57.2287 1.01826 57.5969 0.369706 58H0C3.10179 52.5975 5.21038 46.687 7.18112 40.7893C7.28137 40.2719 7.82968 40.1767 8.23072 39.9831C14.475 37.5802 20.7319 35.19 27.0953 33.1236C29.8211 32.2062 32.6722 31.7618 35.5108 31.3873Z" fill="#2C343D"/>
    <path d="M37 48.4656C39.4094 48.105 41.8626 47.8815 44.3012 48.0663C45.269 48.1318 46.1462 48.5937 47 49.0288V49.2613C46.2982 50.8049 45.6023 52.3933 44.4327 53.6419C42.3772 55.9157 39.8509 57.7782 37.0643 59C37.5351 55.4955 37.924 51.9701 37.886 48.4269C37.6638 48.4358 37.2193 48.4567 37 48.4656Z" fill="#2C343D"/>
</svg>
