<svg viewBox="0 0 25 30" fill="none" xmlns="http://www.w3.org/2000/svg">
    <path d="M8.23547 0H8.94184C11.323 0.271485 13.2894 1.62428 15.0145 3.01256C15.7157 3.62649 16.4724 4.2219 16.9705 4.98546C17.092 5.6364 16.8195 6.27501 16.4932 6.8442C16.186 6.87814 15.8823 6.93059 15.5838 7C15.1464 6.34443 14.7802 5.63795 14.2145 5.06104C12.6646 5.21221 11.1807 5.68268 9.72805 6.16395C8.35697 6.59586 6.72381 6.18246 5.81265 5.17673C4.78867 4.11855 4.72445 2.44182 5.66512 1.32349C6.25694 0.573821 7.22711 0.120317 8.23547 0Z" fill="white"/>
    <path d="M15.6137 7.22353C15.9009 7.15226 16.1931 7.09841 16.4886 7.06357C17.1297 7.00181 17.7909 6.94954 18.4287 7.08574C18.7142 7.14434 18.8411 7.42625 18.998 7.63214C19.6943 8.71859 20.3905 9.80504 21.0383 10.92C21.424 11.582 21.8113 12.2583 22 12.9995C20.7795 12.7635 19.524 12.8221 18.3018 13.0121C13.702 13.7248 9.13897 14.9316 5 17C5.43577 14.9158 5.76802 12.8078 5.86653 10.6824C8.89354 9.03059 12.2929 8.16744 15.6137 7.22353Z" fill="white"/>
    <path d="M18.8887 16.2008C19.412 16.1416 19.9387 16.0839 20.4653 16.0412C21.2269 16.0099 22.0085 15.9375 22.7568 16.1169C23.1018 16.1975 23.1801 16.5892 23.3084 16.8641C24.0317 18.9248 24.6784 21.0249 25 23.1876V24.3562C24.5134 24.1159 24.0134 23.8608 23.4618 23.8246C22.0719 23.7225 20.6736 23.846 19.3004 24.0451C16.5672 24.4319 13.8407 24.9241 11.2109 25.7668C7.83281 26.807 4.54304 28.1056 1.27659 29.4486C0.901612 29.6 0.541629 29.791 0.196652 30H0C1.64989 27.1987 2.77148 24.134 3.81974 21.0759C3.87307 20.8077 4.16473 20.7583 4.37804 20.6579C7.69949 19.4119 11.0276 18.1726 14.4124 17.1011C15.8623 16.6254 17.3788 16.395 18.8887 16.2008Z" fill="white"/>
    <path d="M20 25.2116C21.2047 25.0477 22.4313 24.9461 23.6506 25.0301C24.1345 25.0599 24.5731 25.2699 25 25.4676V25.5733C24.6491 26.275 24.3012 26.9969 23.7164 27.5645C22.6886 28.598 21.4254 29.4446 20.0322 30C20.2675 28.407 20.462 26.8046 20.443 25.194C20.3319 25.1981 20.1096 25.2076 20 25.2116Z" fill="white"/>
</svg>
